PathFileType	3	(X/Y/Z)	D:\Vicon Database\Healthy Subjects\S0040\Jan. 30, 2020\Force Plate Walk 5.trc
DataRate	CameraRate	NumFrames	NumMarkers	Units	OrigDataRate	OrigDataStartFrame	OrigNumFrames
100.0	100.0	4	53	mm	100.0	513	326	
Frame#	Time	right_foot_cluster2			right_foot_cluster3			sternum_cluster1			sternum_cluster2			sternum_cluster3			left_asis			right_asis			left_psis			right_psis			sacrum_cluster1			sacrum_cluster2			sacrum_cluster3			left_lat_femoral_epicondyle			left_anterior_thigh15			left_anterior_thigh25			left_anterior_thigh50			left_lateral_thigh25			left_lateral_thigh50			left_thigh_cluster1			left_thigh_cluster2			left_thigh_cluster3			left_fibular_head			left_tibial_tuberosity			left_anterior_shank30			left_lateral_malleolus			left_shank_cluster1			left_shank_cluster2			left_shank_cluster3			left_heel			left_metatarsal2			left_foot_cluster1			left_foot_cluster2			left_foot_cluster3			right_lat_femoral_epicondyle			right_anterior_thigh15			right_anterior_thigh25			right_anterior_thigh50			right_lateral_thigh25			right_lateral_thigh50			right_thigh_cluster1			right_thigh_cluster2			right_thigh_cluster3			right_fibular_head			right_tibial_tuberosity			right_lateral_distal_shank			right_anterior_shank30			right_lateral_malleolus			right_shank_cluster1			right_shank_cluster2			right_shank_cluster3			right_heel			right_metatarsal2			right_foot_cluster1			
		X1	Y1	Z1	X2	Y2	Z2	X3	Y3	Z3	X4	Y4	Z4	X5	Y5	Z5	X6	Y6	Z6	X7	Y7	Z7	X8	Y8	Z8	X9	Y9	Z9	X10	Y10	Z10	X11	Y11	Z11	X12	Y12	Z12	X13	Y13	Z13	X14	Y14	Z14	X15	Y15	Z15	X16	Y16	Z16	X17	Y17	Z17	X18	Y18	Z18	X19	Y19	Z19	X20	Y20	Z20	X21	Y21	Z21	X22	Y22	Z22	X23	Y23	Z23	X24	Y24	Z24	X25	Y25	Z25	X26	Y26	Z26	X27	Y27	Z27	X28	Y28	Z28	X29	Y29	Z29	X30	Y30	Z30	X31	Y31	Z31	X32	Y32	Z32	X33	Y33	Z33	X34	Y34	Z34	X35	Y35	Z35	X36	Y36	Z36	X37	Y37	Z37	X38	Y38	Z38	X39	Y39	Z39	X40	Y40	Z40	X41	Y41	Z41	X42	Y42	Z42	X43	Y43	Z43	X44	Y44	Z44	X45	Y45	Z45	X46	Y46	Z46	X47	Y47	Z47	X48	Y48	Z48	X49	Y49	Z49	X50	Y50	Z50	X51	Y51	Z51	X52	Y52	Z52	X53	Y53	Z53	
513	5.12	-545.74054	146.85472	-157.26241	-543.84174	147.1265	-194.58362	-265.54712	1444.5226	-80.108612	-278.44531	1417.4327	-71.942131	-275.14233	1420.0736	-109.56857	-252.3743	1060.6273	39.315056	-251.85272	1072.9351	-208.77246	-87.785713	1083.0562	-14.455597	-83.581451	1082.9432	-131.76247	-76.532013	1139.1896	-79.634506	-69.865448	1114.1075	-90.653618	-69.39846	1108.804	-51.316772	-73.966049	551.40723	45.387272	-190.88844	605.36426	5.6929369	-231.17728	682.0921	25.95623	-263.10281	820.24719	49.246231	-111.96079	700.15253	70.028252	-153.03717	840.65436	100.09381	-137.20042	797.1308	103.32146	-128.78519	769.44586	99.92421	-165.58141	770.60986	107.93755	-57.408375	470.80536	49.184082	-111.47342	448.97549	-0.89696896	-33.126072	210.73465	-23.495893	45.076729	109.96098	-4.8179936	-102.47598	397.15845	-30.912422	-99.095985	369.388	-22.887159	-87.518723	372.95883	-59.980789	124.11565	82.808792	-42.366444	-93.57798	57.132477	-35.067818	-39.997345	113.21151	-29.859272	-61.005642	93.74305	-19.275993	-67.359718	99.444901	-56.780357	-351.65466	545.08337	-221.95827	-406.76221	651.39679	-174.91667	-390.15732	731.22113	-170.53934	-340.2858	850.42267	-174.62961	-299.15839	694.46509	-253.23856	-247.91908	833.85065	-277.59656	-259.83221	782.07159	-282.94476	-278.81064	760.76813	-279.66977	-243.03242	746.867	-272.64151	-358.96243	479.18411	-225.3802	-417.3335	482.05432	-183.41985	-409.19446	213.24286	-213.05438	-451.84259	237.88956	-169.25635	-437.52408	106.41364	-197.65009	-424.06799	418.02167	-128.8175	-425.24139	389.77701	-121.53709	-446.47113	393.27457	-152.03514	-378.32318	51.413189	-155.541	-584.34595	125.07471	-166.73602	-518.53046	153.07585	-165.45639
514	5.13	-579.39392	153.9239	-156.64174	-577.49957	154.26895	-194.10402	-280.03638	1441.5586	-80.192085	-292.96542	1414.4886	-72.029892	-289.59637	1417.13	-109.67534	-266.53165	1057.7177	39.332108	-266.86804	1069.8093	-209.08109	-101.69135	1080.76	-15.261114	-98.099869	1080.4935	-132.55722	-90.954018	1136.6674	-80.328041	-84.558418	1111.4277	-91.858124	-83.812523	1106.1819	-52.213528	-80.290085	551.62427	45.065323	-198.85817	603.62732	5.9462085	-240.06429	679.76563	25.727798	-274.35428	816.94568	49.470467	-120.99792	699.57727	69.913055	-164.49371	839.43237	99.283531	-147.68271	796.15039	103.05679	-138.75993	768.59595	99.93927	-175.41905	768.98517	107.83598	-62.299736	471.15448	49.082123	-116.11193	448.43549	-0.94366074	-35.331142	211.14487	-23.356159	44.061661	111.00004	-5.0121894	-106.61315	396.75467	-30.765556	-103.38284	369.3696	-22.592167	-91.943031	372.8559	-59.544559	123.18727	84.908501	-42.588497	-94.078484	56.794849	-34.880497	-41.060852	113.28749	-29.516182	-61.997784	93.614769	-19.061085	-68.35128	99.421501	-56.496422	-365.5499	541.55487	-220.79446	-417.47626	646.53168	-172.81351	-401.64948	725.9021	-168.97447	-353.20715	845.12372	-174.00641	-310.11716	689.33783	-253.92944	-260.97162	829.77338	-277.46262	-270.41293	777.96918	-282.34418	-289.57196	756.26703	-279.71738	-254.46541	742.94702	-273.37222	-375.4545	476.45078	-223.82816	-433.6954	481.54343	-181.1628	-439.83249	213.56882	-213.13062	-480.72745	240.22882	-168.63	-473.59222	108.14043	-198.08643	-442.40048	418.11719	-127.14256	-445.15421	390.07608	-119.8762	-466.70554	394.93353	-149.98528	-416.74969	49.704277	-156.63353	-619.16656	134.20053	-166.07933	-551.93262	158.77559	-164.88153
515	5.14	-610.56708	160.74974	-156.0591	-608.87054	161.13126	-193.59352	-294.60236	1438.4906	-80.287888	-307.52316	1411.3901	-72.177986	-304.16412	1414.0938	-109.79395	-280.78015	1054.6425	39.2644	-281.89285	1066.4949	-209.41602	-116.1119	1078.0341	-15.953163	-113.02996	1077.4001	-133.56419	-105.44234	1133.9211	-81.169159	-98.716652	1108.7935	-92.705894	-98.401535	1103.4236	-53.221008	-87.231041	551.46906	44.669231	-205.01112	600.71393	4.2848201	-249.40117	677.00183	25.360842	-286.05527	813.60138	49.456051	-130.56039	698.75354	69.648674	-176.29283	837.88135	98.420464	-158.97215	794.91534	103.04613	-149.2791	767.31897	99.506958	-186.07321	767.30219	107.77093	-67.777283	471.30457	48.829311	-121.30071	447.81186	-1.0996062	-37.688046	211.51289	-23.216894	42.871567	112.25243	-5.0096884	-111.37985	396.33096	-30.709915	-107.5533	368.79163	-22.613508	-96.465851	372.49927	-59.488968	122.30796	86.561264	-42.798264	-94.534737	56.37162	-34.602779	-42.302151	113.38364	-29.082232	-62.816277	93.308281	-18.89489	-69.400314	99.301224	-56.050652	-379.41821	538.05377	-220.03618	-428.73184	641.94983	-170.68118	-413.49979	720.91815	-167.4991	-366.43863	840.06586	-173.49713	-321.38901	684.29633	-254.06435	-273.94199	825.65009	-277.59552	-282.33856	773.40497	-282.91336	-302.44772	751.64618	-281.34189	-266.38965	738.64392	-273.80722	-392.19522	474.00894	-222.89804	-449.86783	481.09451	-179.17336	-468.57175	214.20935	-213.18277	-507.82831	242.71942	-167.9944	-507.40744	110.01276	-198.56679	-460.27365	418.14807	-125.78343	-464.53738	390.4592	-118.36328	-486.16962	396.38617	-148.30711	-454.72653	48.011234	-158.87906	-651.33539	143.02243	-165.30641	-582.95612	164.37791	-164.5923
516	5.15	-639.0246	167.19827	-155.50583	-637.83386	167.63612	-192.88216	-309.25473	1435.3468	-80.38623	-322.20227	1408.2615	-72.272697	-318.76212	1410.9148	-109.94804	-295.15674	1051.4658	39.125374	-296.64197	1063.0906	-209.69901	-130.14935	1075.6786	-17.060297	-127.6093	1074.7518	-134.34464	-120.11055	1131.2726	-82.269699	-113.45968	1106.0764	-93.769333	-111.72478	1101.0199	-54.550205	-94.826019	551.28149	44.413193				-259.15524	674.27863	24.964367	-298.29434	810.34723	49.198055	-140.76581	697.67828	69.360336	-188.63818	836.12939	98.150322	-170.69231	793.51074	102.74797	-160.69371	765.83014	99.06665	-197.31433	765.34857	107.63959	-73.864227	471.48672	48.595543	-127.02696	447.03699	-1.4245718	-40.423473	211.95563	-23.19243	41.566971	113.46418	-5.2900753	-116.54996	395.77188	-30.686144	-112.12875	368.14734	-22.579191	-101.44028	372.0296	-59.500786	121.16311	89.168343	-43.024155	-95.272507	56.090687	-34.500851	-43.618198	113.53119	-28.905907	-63.879818	93.131844	-18.668856	-70.648018	99.271179	-55.82156	-393.71808	534.67157	-219.77899	-440.78745	638.08746	-168.70161	-425.92804	716.5658	-166.33235	-380.1792	835.61963	-173.14529	-333.87131	679.8371	-253.63344	-287.53427	821.68933	-278.22562	-295.73727	768.82227	-283.68048	-314.66153	746.802	-280.99661	-279.35147	734.25281	-273.84573	-408.48441	471.27744	-222.65929	-465.75876	480.62857	-177.49208	-495.22247	214.95047	-213.21555	-533.10492	245.01526	-167.54059	-538.77484	112.02826	-198.77251	-477.66211	418.00122	-124.7712	-483.22522	390.64453	-117.29555	-504.84854	397.54666	-147.03517	-488.94177	47.298306	-160.2016	-680.66284	151.30453	-164.31606	-611.38495	169.61807	-164.32156
